<svg width="20" height="22" viewBox="0 0 20 22" fill="none" xmlns="http://www.w3.org/2000/svg">
<path d="M19.7736 15.8303C19.1953 14.8342 18.3358 12.0159 18.3358 8.335C18.3358 6.12442 17.4577 4.00438 15.8945 2.44127C14.3314 0.878149 12.2114 0 10.0008 0C7.79022 0 5.67018 0.878149 4.10706 2.44127C2.54394 4.00438 1.66579 6.12442 1.66579 8.335C1.66579 12.017 0.805204 14.8342 0.226963 15.8303C0.0792987 16.0835 0.00101614 16.3712 9.82589e-06 16.6643C-0.000996484 16.9574 0.0753092 17.2456 0.221232 17.4998C0.367154 17.7541 0.577533 17.9653 0.831152 18.1123C1.08477 18.2593 1.37266 18.3368 1.66579 18.337H5.91769C6.10999 19.278 6.62139 20.1237 7.36541 20.731C8.10942 21.3383 9.04037 21.6701 10.0008 21.6701C10.9612 21.6701 11.8922 21.3383 12.6362 20.731C13.3802 20.1237 13.8916 19.278 14.0839 18.337H18.3358C18.6288 18.3366 18.9166 18.259 19.1701 18.1119C19.4236 17.9649 19.6338 17.7536 19.7796 17.4994C19.9254 17.2452 20.0016 16.9571 20.0005 16.664C19.9995 16.371 19.9212 16.0834 19.7736 15.8303ZM10.0008 20.004C9.48384 20.0038 8.97964 19.8435 8.55759 19.5449C8.13554 19.2464 7.81639 18.8244 7.64407 18.337H12.3575C12.1852 18.8244 11.8661 19.2464 11.444 19.5449C11.022 19.8435 10.5178 20.0038 10.0008 20.004ZM1.66579 16.67C2.46804 15.2906 3.33279 12.0941 3.33279 8.335C3.33279 6.56654 4.03531 4.87051 5.28581 3.62001C6.5363 2.36952 8.23233 1.667 10.0008 1.667C11.7693 1.667 13.4653 2.36952 14.7158 3.62001C15.9663 4.87051 16.6688 6.56654 16.6688 8.335C16.6688 12.091 17.5315 15.2874 18.3358 16.67H1.66579Z" fill="white"/>
</svg>
