<svg width="14" height="19" viewBox="0 0 14 19" fill="none" xmlns="http://www.w3.org/2000/svg">
<path d="M1.18831 18.8588C1.07616 18.9395 0.943908 18.9877 0.806137 18.998C0.668366 19.0083 0.530426 18.9803 0.407525 18.9172C0.284624 18.8541 0.181536 18.7583 0.109628 18.6403C0.037719 18.5224 -0.000217428 18.3868 9.37398e-07 18.2487V3.25084C9.37398e-07 2.38866 0.342499 1.5618 0.952149 0.952148C1.5618 0.342498 2.38866 0 3.25084 0H10.7518C11.6136 0.000265137 12.44 0.342743 13.0495 0.952148C13.6589 1.56155 14.0013 2.38801 14.0016 3.24984V18.2497C14.0016 18.3878 13.9636 18.5232 13.8916 18.641C13.8196 18.7588 13.7165 18.8545 13.5936 18.9175C13.4708 18.9804 13.3329 19.0083 13.1952 18.998C13.0575 18.9876 12.9254 18.9395 12.8133 18.8588L7.0008 14.6768L1.18731 18.8578L1.18831 18.8588ZM12.5012 3.24984C12.5012 2.78559 12.3168 2.34035 11.9885 2.01208C11.6602 1.68381 11.215 1.49939 10.7508 1.49939H3.25184C2.78759 1.49939 2.34235 1.68381 2.01408 2.01208C1.68581 2.34035 1.50139 2.78559 1.50139 3.24984V16.7853L6.56469 13.1444C6.69232 13.0526 6.84557 13.0032 7.0028 13.0032C7.16003 13.0032 7.31328 13.0526 7.44091 13.1444L12.5022 16.7853V3.25084L12.5012 3.24984Z" fill="#727272"/>
</svg>
