<svg width="20" height="20" viewBox="0 0 20 20" fill="none" xmlns="http://www.w3.org/2000/svg">
<path d="M19.9125 3.79375L18.2458 0.460417C18.1766 0.321967 18.0701 0.205554 17.9383 0.124231C17.8066 0.0429076 17.6548 -0.000110625 17.5 2.13647e-07H2.5C2.34518 -0.000110625 2.1934 0.0429076 2.06166 0.124231C1.92992 0.205554 1.82345 0.321967 1.75417 0.460417L0.0875 3.79375C0.0300592 3.90968 0.000117172 4.03729 0 4.16667V18.3333C0 18.7754 0.175595 19.1993 0.488155 19.5118C0.800716 19.8244 1.22464 20 1.66667 20H18.3333C18.7754 20 19.1993 19.8244 19.5118 19.5118C19.8244 19.1993 20 18.7754 20 18.3333V4.16667C19.9999 4.03729 19.9699 3.90968 19.9125 3.79375ZM3.01458 1.66667H16.9854L17.8188 3.33333H2.18125L3.01458 1.66667ZM18.3333 18.3333H1.66667V5H18.3333V18.3333ZM13.9229 10.2437C14.0003 10.3212 14.0618 10.4131 14.1037 10.5143C14.1456 10.6154 14.1671 10.7238 14.1671 10.8333C14.1671 10.9428 14.1456 11.0513 14.1037 11.1524C14.0618 11.2536 14.0003 11.3455 13.9229 11.4229C13.8455 11.5003 13.7536 11.5618 13.6524 11.6037C13.5513 11.6456 13.4428 11.6671 13.3333 11.6671C13.2238 11.6671 13.1154 11.6456 13.0143 11.6037C12.9131 11.5618 12.8212 11.5003 12.7437 11.4229L10.8333 9.51146V15.8333C10.8333 16.0543 10.7455 16.2663 10.5893 16.4226C10.433 16.5789 10.221 16.6667 10 16.6667C9.77899 16.6667 9.56703 16.5789 9.41074 16.4226C9.25446 16.2663 9.16667 16.0543 9.16667 15.8333V9.51146L7.25625 11.4229C7.17882 11.5003 7.08691 11.5618 6.98575 11.6037C6.88459 11.6456 6.77616 11.6671 6.66667 11.6671C6.55717 11.6671 6.44875 11.6456 6.34759 11.6037C6.24643 11.5618 6.15451 11.5003 6.07708 11.4229C5.99966 11.3455 5.93824 11.2536 5.89634 11.1524C5.85444 11.0513 5.83287 10.9428 5.83287 10.8333C5.83287 10.7238 5.85444 10.6154 5.89634 10.5143C5.93824 10.4131 5.99966 10.3212 6.07708 10.2437L9.41042 6.91042C9.48781 6.83294 9.57972 6.77147 9.68088 6.72953C9.78205 6.6876 9.89049 6.66601 10 6.66601C10.1095 6.66601 10.218 6.6876 10.3191 6.72953C10.4203 6.77147 10.5122 6.83294 10.5896 6.91042L13.9229 10.2437Z" fill="#DCDCDC"/>
</svg>
