<svg width="20" height="17" viewBox="0 0 20 17" fill="none" xmlns="http://www.w3.org/2000/svg">
<path d="M18.3333 9.16667H1.66667C1.22464 9.16667 0.800716 9.34226 0.488155 9.65482C0.175595 9.96738 0 10.3913 0 10.8333V15C0 15.442 0.175595 15.8659 0.488155 16.1785C0.800716 16.4911 1.22464 16.6667 1.66667 16.6667H18.3333C18.7754 16.6667 19.1993 16.4911 19.5118 16.1785C19.8244 15.8659 20 15.442 20 15V10.8333C20 10.3913 19.8244 9.96738 19.5118 9.65482C19.1993 9.34226 18.7754 9.16667 18.3333 9.16667ZM18.3333 15H1.66667V10.8333H18.3333V15ZM18.3333 0H1.66667C1.22464 0 0.800716 0.175595 0.488155 0.488155C0.175595 0.800716 0 1.22464 0 1.66667V5.83333C0 6.27536 0.175595 6.69928 0.488155 7.01184C0.800716 7.32441 1.22464 7.5 1.66667 7.5H18.3333C18.7754 7.5 19.1993 7.32441 19.5118 7.01184C19.8244 6.69928 20 6.27536 20 5.83333V1.66667C20 1.22464 19.8244 0.800716 19.5118 0.488155C19.1993 0.175595 18.7754 0 18.3333 0ZM18.3333 5.83333H1.66667V1.66667H18.3333V5.83333Z" fill="#DCDCDC"/>
</svg>
