<svg width="20" height="18" viewBox="0 0 20 18" fill="none" xmlns="http://www.w3.org/2000/svg">
<path d="M1.49997 0H18C18.3978 0 18.7793 0.158035 19.0606 0.43934C19.3419 0.720644 19.5 1.10218 19.5 1.5V16.5C19.5017 16.7859 19.4208 17.0662 19.2672 17.3074C19.1135 17.5485 18.8936 17.7401 18.6337 17.8594C18.4351 17.9516 18.2189 17.9996 18 18C17.6478 17.9992 17.3074 17.8736 17.039 17.6456L17.0306 17.6391L13.9687 15H1.49997C1.10215 15 0.720617 14.842 0.439312 14.5607C0.158009 14.2794 -2.67029e-05 13.8978 -2.67029e-05 13.5V1.5C-2.67029e-05 1.10218 0.158009 0.720644 0.439312 0.43934C0.720617 0.158035 1.10215 0 1.49997 0ZM1.49997 13.5H14.25C14.4301 13.5001 14.6041 13.565 14.7403 13.6828L18 16.5V1.5H1.49997V13.5ZM13.5 6C13.5 5.80109 13.421 5.61032 13.2803 5.46967C13.1397 5.32902 12.9489 5.25 12.75 5.25H6.74997C6.55106 5.25 6.3603 5.32902 6.21964 5.46967C6.07899 5.61032 5.99997 5.80109 5.99997 6C5.99997 6.19891 6.07899 6.38968 6.21964 6.53033C6.3603 6.67098 6.55106 6.75 6.74997 6.75H12.75C12.9489 6.75 13.1397 6.67098 13.2803 6.53033C13.421 6.38968 13.5 6.19891 13.5 6ZM13.5 9C13.5 8.80109 13.421 8.61032 13.2803 8.46967C13.1397 8.32902 12.9489 8.25 12.75 8.25H6.74997C6.55106 8.25 6.3603 8.32902 6.21964 8.46967C6.07899 8.61032 5.99997 8.80109 5.99997 9C5.99997 9.19891 6.07899 9.38968 6.21964 9.53033C6.3603 9.67098 6.55106 9.75 6.74997 9.75H12.75C12.9489 9.75 13.1397 9.67098 13.2803 9.53033C13.421 9.38968 13.5 9.19891 13.5 9Z" fill="white"/>
</svg>
