<svg width="13" height="2" viewBox="0 0 13 2" fill="none" xmlns="http://www.w3.org/2000/svg">
<path d="M7.475 0.975C7.475 1.16784 7.41782 1.35634 7.31068 1.51668C7.20355 1.67702 7.05127 1.80199 6.87312 1.87578C6.69496 1.94958 6.49892 1.96889 6.30979 1.93127C6.12066 1.89365 5.94693 1.80078 5.81057 1.66443C5.67422 1.52807 5.58136 1.35434 5.54374 1.16521C5.50611 0.976081 5.52542 0.780042 5.59922 0.601884C5.67301 0.423726 5.79798 0.271451 5.95832 0.164317C6.11866 0.0571825 6.30716 0 6.5 0C6.75859 0 7.00658 0.102723 7.18943 0.285571C7.37228 0.468419 7.475 0.716414 7.475 0.975ZM12.025 0C11.8322 0 11.6437 0.0571825 11.4833 0.164317C11.323 0.271451 11.198 0.423726 11.1242 0.601884C11.0504 0.780042 11.0311 0.976081 11.0687 1.16521C11.1064 1.35434 11.1992 1.52807 11.3356 1.66443C11.4719 1.80078 11.6457 1.89365 11.8348 1.93127C12.0239 1.96889 12.22 1.94958 12.3981 1.87578C12.5763 1.80199 12.7285 1.67702 12.8357 1.51668C12.9428 1.35634 13 1.16784 13 0.975C13 0.716414 12.8973 0.468419 12.7144 0.285571C12.5316 0.102723 12.2836 0 12.025 0ZM0.975001 0C0.782164 0 0.593657 0.0571825 0.43332 0.164317C0.272982 0.271451 0.148013 0.423726 0.0742179 0.601884C0.000422454 0.780042 -0.0188858 0.976081 0.0187348 1.16521C0.0563554 1.35434 0.149215 1.52807 0.285571 1.66443C0.421928 1.80078 0.595656 1.89365 0.784788 1.93127C0.973919 1.96889 1.16996 1.94958 1.34812 1.87578C1.52627 1.80199 1.67855 1.67702 1.78568 1.51668C1.89282 1.35634 1.95 1.16784 1.95 0.975C1.95 0.716414 1.84728 0.468419 1.66443 0.285571C1.48158 0.102723 1.23359 0 0.975001 0Z" fill="#A3A3A3"/>
</svg>
