<svg width="23" height="18" viewBox="0 0 23 18" fill="none" xmlns="http://www.w3.org/2000/svg">
<path d="M22.6153 11.4411C22.547 11.2505 22.4668 11.0644 22.3751 10.8839L18.1229 1.21002C18.0827 1.11685 18.0251 1.03218 17.9532 0.960555C17.6494 0.656674 17.2887 0.415619 16.8917 0.251156C16.4947 0.0866934 16.0692 0.00204483 15.6395 0.00204483C15.2098 0.00204483 14.7843 0.0866934 14.3874 0.251156C13.9904 0.415619 13.6297 0.656674 13.3259 0.960555C13.173 1.11357 13.087 1.3209 13.0866 1.53718V4.09316H9.81497V1.53718C9.81505 1.42974 9.79396 1.32334 9.75291 1.22405C9.71187 1.12475 9.65166 1.03452 9.57573 0.95851C9.27191 0.654629 8.91122 0.413574 8.51423 0.249111C8.11725 0.0846486 7.69175 0 7.26205 0C6.83235 0 6.40686 0.0846486 6.00987 0.249111C5.61289 0.413574 5.25219 0.654629 4.94838 0.95851C4.87649 1.03014 4.81889 1.1148 4.77866 1.20797L0.526532 10.8818C0.434811 11.0623 0.354564 11.2485 0.28627 11.4391C0.0454967 12.1127 -0.0450677 12.8309 0.0209209 13.5433C0.0869096 14.2557 0.307856 14.945 0.668281 15.563C1.02871 16.181 1.5199 16.7127 2.10744 17.1209C2.69498 17.5291 3.36467 17.8039 4.06958 17.9261C4.7745 18.0482 5.49761 18.0148 6.18823 17.8281C6.87886 17.6413 7.52032 17.3059 8.06767 16.8452C8.61501 16.3845 9.05501 15.8097 9.35684 15.1611C9.65867 14.5124 9.81503 13.8056 9.81497 13.0902V5.72899H13.0866V13.0902C13.0863 13.8057 13.2424 14.5127 13.544 15.1615C13.8456 15.8103 14.2855 16.3853 14.8327 16.8463C15.38 17.3072 16.0215 17.6429 16.7121 17.8298C17.4028 18.0167 18.126 18.0503 18.831 17.9283C19.536 17.8063 20.2058 17.5316 20.7935 17.1234C21.3812 16.7153 21.8725 16.1835 22.233 15.5655C22.5936 14.9475 22.8146 14.2581 22.8806 13.5456C22.9467 12.8331 22.8561 12.1149 22.6153 11.4411ZM6.20694 2.02282C6.47964 1.79321 6.81987 1.65897 7.17587 1.64051C7.53188 1.62206 7.88417 1.7204 8.17914 1.92058V9.43618C7.54055 8.86278 6.76249 8.46726 5.9229 8.28926C5.08331 8.11125 4.21169 8.15702 3.39536 8.42197L6.20694 2.02282ZM4.90748 16.3619C4.26041 16.3619 3.62787 16.17 3.08985 15.8105C2.55183 15.451 2.13249 14.94 1.88487 14.3422C1.63724 13.7444 1.57245 13.0866 1.69869 12.4519C1.82493 11.8173 2.13652 11.2344 2.59407 10.7768C3.05162 10.3193 3.63458 10.0077 4.26921 9.88142C4.90385 9.75519 5.56167 9.81998 6.15949 10.0676C6.75731 10.3152 7.26827 10.7346 7.62776 11.2726C7.98726 11.8106 8.17914 12.4431 8.17914 13.0902C8.17914 13.9579 7.83445 14.7901 7.22089 15.4036C6.60734 16.0172 5.77518 16.3619 4.90748 16.3619ZM14.7224 1.91956C15.0174 1.71938 15.3697 1.62104 15.7257 1.63949C16.0817 1.65795 16.4219 1.79219 16.6946 2.0218L19.5062 8.41993C18.6898 8.15511 17.8181 8.10951 16.9785 8.28769C16.1389 8.46587 15.3609 8.86158 14.7224 9.43516V1.91956ZM17.9941 16.3619C17.347 16.3619 16.7145 16.17 16.1765 15.8105C15.6384 15.451 15.2191 14.94 14.9715 14.3422C14.7239 13.7444 14.6591 13.0866 14.7853 12.4519C14.9115 11.8173 15.2231 11.2344 15.6807 10.7768C16.1382 10.3193 16.7212 10.0077 17.3558 9.88142C17.9905 9.75519 18.6483 9.81998 19.2461 10.0676C19.8439 10.3152 20.3549 10.7346 20.7144 11.2726C21.0739 11.8106 21.2658 12.4431 21.2658 13.0902C21.2658 13.9579 20.9211 14.7901 20.3075 15.4036C19.694 16.0172 18.8618 16.3619 17.9941 16.3619Z" fill="#DCDCDC"/>
</svg>
