<svg width="21" height="18" viewBox="0 0 21 18" fill="none" xmlns="http://www.w3.org/2000/svg">
<path d="M11.2626 1.64264L10.409 2.4983L9.55126 1.64056C8.5019 0.591336 7.07871 0.00194194 5.59478 0.00203955C4.11086 0.00213715 2.68775 0.591718 1.63852 1.64108C0.589296 2.69044 -9.75953e-05 4.11363 1.21214e-08 5.59756C9.76196e-05 7.08148 0.589679 8.50459 1.63904 9.55382L9.8573 17.7721C10.0037 17.9183 10.2021 18.0004 10.409 18.0004C10.6159 18.0004 10.8143 17.9183 10.9607 17.7721L19.1862 9.55174C20.2344 8.50229 20.823 7.07966 20.8228 5.59645C20.8226 4.11324 20.2336 2.69078 19.1852 1.6416C18.6651 1.12117 18.0476 0.708326 17.3679 0.426652C16.6882 0.144979 15.9596 0 15.2239 0C14.4881 0 13.7596 0.144979 13.0799 0.426652C12.4002 0.708326 11.7827 1.12117 11.2626 1.6416V1.64264ZM18.0787 8.45042L10.409 16.117L2.74244 8.45042C2.36461 8.07659 2.06439 7.63177 1.85903 7.14153C1.65367 6.65129 1.54723 6.1253 1.54581 5.59379C1.5444 5.06228 1.64804 4.53572 1.85079 4.0444C2.05354 3.55308 2.35139 3.10667 2.72723 2.73083C3.10306 2.35499 3.54947 2.05714 4.0408 1.85439C4.53212 1.65164 5.05867 1.548 5.59019 1.54941C6.1217 1.55083 6.64769 1.65727 7.13793 1.86263C7.62817 2.06799 8.07299 2.36821 8.44682 2.74604L9.86042 4.15861C9.93397 4.23224 10.0215 4.29042 10.1178 4.32974C10.2142 4.36905 10.3175 4.38871 10.4215 4.38754C10.5256 4.38638 10.6284 4.36442 10.7238 4.32296C10.8193 4.2815 10.9055 4.22137 10.9774 4.14611L12.366 2.74604C13.1314 2.0336 14.1433 1.64578 15.1888 1.66417C16.2343 1.68257 17.232 2.10575 17.9718 2.84468C18.7117 3.58362 19.1362 4.58071 19.1559 5.6262C19.1756 6.6717 18.7891 7.68409 18.0776 8.45042H18.0787Z" fill="#727272"/>
</svg>
