<svg width="18" height="14" viewBox="0 0 18 14" fill="none" xmlns="http://www.w3.org/2000/svg">
<path d="M18 6.75C18 6.94891 17.921 7.13968 17.7803 7.28033C17.6397 7.42098 17.4489 7.5 17.25 7.5H0.75C0.551088 7.5 0.360322 7.42098 0.21967 7.28033C0.0790178 7.13968 0 6.94891 0 6.75C0 6.55109 0.0790178 6.36032 0.21967 6.21967C0.360322 6.07902 0.551088 6 0.75 6H17.25C17.4489 6 17.6397 6.07902 17.7803 6.21967C17.921 6.36032 18 6.55109 18 6.75ZM0.75 1.5H17.25C17.4489 1.5 17.6397 1.42098 17.7803 1.28033C17.921 1.13968 18 0.948912 18 0.75C18 0.551088 17.921 0.360322 17.7803 0.21967C17.6397 0.0790178 17.4489 0 17.25 0H0.75C0.551088 0 0.360322 0.0790178 0.21967 0.21967C0.0790178 0.360322 0 0.551088 0 0.75C0 0.948912 0.0790178 1.13968 0.21967 1.28033C0.360322 1.42098 0.551088 1.5 0.75 1.5ZM17.25 12H0.75C0.551088 12 0.360322 12.079 0.21967 12.2197C0.0790178 12.3603 0 12.5511 0 12.75C0 12.9489 0.0790178 13.1397 0.21967 13.2803C0.360322 13.421 0.551088 13.5 0.75 13.5H17.25C17.4489 13.5 17.6397 13.421 17.7803 13.2803C17.921 13.1397 18 12.9489 18 12.75C18 12.5511 17.921 12.3603 17.7803 12.2197C17.6397 12.079 17.4489 12 17.25 12Z" fill="white"/>
</svg>
