<svg width="20" height="21" viewBox="0 0 20 21" fill="none" xmlns="http://www.w3.org/2000/svg">
<path d="M20 9.99923V19.9992C20 20.2202 19.9122 20.4322 19.7559 20.5885C19.5996 20.7448 19.3877 20.8326 19.1667 20.8326H13.3333C13.1123 20.8326 12.9004 20.7448 12.7441 20.5885C12.5878 20.4322 12.5 20.2202 12.5 19.9992V14.5826C12.5 14.4721 12.4561 14.3661 12.378 14.2879C12.2998 14.2098 12.1938 14.1659 12.0833 14.1659H7.91667C7.80616 14.1659 7.70018 14.2098 7.62204 14.2879C7.5439 14.3661 7.5 14.4721 7.5 14.5826V19.9992C7.5 20.2202 7.4122 20.4322 7.25592 20.5885C7.09964 20.7448 6.88768 20.8326 6.66667 20.8326H0.833333C0.61232 20.8326 0.400358 20.7448 0.244078 20.5885C0.0877975 20.4322 0 20.2202 0 19.9992V9.99923C0.000204885 9.55728 0.175934 9.13351 0.488542 8.8211L8.82187 0.487769C9.1344 0.175445 9.55816 0 10 0C10.4418 0 10.8656 0.175445 11.1781 0.487769L19.5115 8.8211C19.8241 9.13351 19.9998 9.55728 20 9.99923Z" fill="white"/>
</svg>
